<svg width="900" height="900" viewBox="0 0 900 900" fill="none" xmlns="http://www.w3.org/2000/svg">
<g clip-path="url(#clip0_143_90)">
<path d="M900 0H0V900H900V0Z" fill="#2E5BEF"/>
<path d="M181.043 409.37L168.342 371.75H133.893L120.496 409.37H133.545V412.679H106.926V409.37H115.103L159.469 289.717H173.735L217.579 409.37H225.582V412.679H168.69V409.37H181.043ZM151.813 322.286L135.459 367.918H166.95L151.813 322.286ZM323.239 412.679H283.571L281.657 399.965C279.8 404.609 277.016 408.209 273.306 410.763C269.709 413.201 264.316 414.42 257.125 414.42C239.147 414.42 230.158 404.726 230.158 385.335V332.91H220.415V329.775H262.519V389.515C262.519 396.481 262.982 401.068 263.911 403.274C264.954 405.479 266.925 406.583 269.826 406.583C272.841 406.583 275.509 404.783 277.829 401.184C280.148 397.585 281.309 392.591 281.309 386.205V332.91H273.306V329.775H313.67V409.544H323.239V412.679ZM384.909 334.652C380.618 334.652 376.849 337.439 373.601 343.012C370.353 348.585 368.729 355.204 368.729 362.867V409.544H381.082V412.679H326.799V409.544H336.368V332.91H326.799V329.775H368.729V346.495C370.238 340.574 373.137 336.045 377.428 332.91C381.721 329.659 386.592 328.034 392.043 328.034C397.495 328.034 401.903 329.601 405.266 332.736C408.745 335.755 410.485 340.109 410.485 345.799C410.485 351.372 409.21 355.668 406.657 358.687C404.106 361.706 400.163 363.215 394.827 363.215C389.607 363.215 385.722 361.474 383.17 357.99C380.734 354.507 380.444 349.688 382.3 343.535H388.563C391.464 337.613 390.246 334.652 384.909 334.652ZM457.849 414.42C442.887 414.42 431.636 410.589 424.097 402.925C416.674 395.146 412.962 384.405 412.962 370.705C412.962 356.887 417.137 346.321 425.489 339.006C433.955 331.691 444.685 328.034 457.675 328.034C484.005 328.034 496.648 341.27 495.604 367.744H446.54V374.536C446.54 385.916 447.991 394.507 450.89 400.313C453.789 406.119 458.835 409.021 466.027 409.021C479.482 409.021 488.296 401.822 492.472 387.425L495.604 387.947C493.4 396.307 489.399 402.81 483.599 407.454C477.916 412.098 469.332 414.42 457.849 414.42ZM446.714 364.26H464.635V355.726C464.635 346.321 464.054 339.935 462.895 336.568C461.851 333.085 459.648 331.343 456.283 331.343C453.036 331.343 450.6 333.201 448.976 336.916C447.469 340.516 446.714 346.786 446.714 355.726V364.26ZM501.106 282.054H543.732V409.544H553.475V412.679H501.802V409.544H511.371V285.189H501.106V282.054ZM582.426 317.758C576.279 317.758 571.872 316.19 569.203 313.055C566.652 309.92 565.376 306.031 565.376 301.386C565.376 296.742 566.768 292.91 569.551 289.891C572.452 286.872 576.801 285.363 582.6 285.363C588.4 285.363 592.808 286.756 595.823 289.543C598.839 292.213 600.346 296.103 600.346 301.212C600.346 306.205 598.897 310.211 595.997 313.23C593.097 316.248 588.574 317.758 582.426 317.758ZM556.155 329.775H598.78V409.544H608.524V412.679H556.851V409.544H566.42V332.91H556.155V329.775ZM668.267 378.368V363.564C668.267 352.301 667.629 344.115 666.353 339.006C665.193 333.781 662.41 331.169 658.002 331.169C655.45 331.169 653.363 331.923 651.738 333.433C650.231 334.826 649.129 337.206 648.433 340.574C647.389 345.799 646.867 353.752 646.867 364.435V378.02C646.867 390.675 647.215 398.281 647.911 400.835C648.722 403.389 649.535 405.479 650.347 407.105C651.623 409.892 654.116 411.285 657.828 411.285C662.351 411.285 665.309 408.673 666.701 403.448C667.745 399.732 668.267 391.372 668.267 378.368ZM657.48 414.42C642.981 414.42 632.02 410.704 624.597 403.274C617.174 395.843 613.462 385.219 613.462 371.401C613.462 357.468 617.405 346.786 625.293 339.355C633.296 331.807 644.49 328.034 658.872 328.034C673.254 328.034 683.984 331.517 691.059 338.484C698.133 345.334 701.671 355.842 701.671 370.008C701.671 399.616 686.941 414.42 657.48 414.42ZM706.886 329.775H748.816V345.799C750.671 340.458 753.513 336.161 757.341 332.91C761.169 329.659 766.967 328.034 774.739 328.034C792.717 328.034 801.707 337.729 801.707 357.12V409.544H811.45V412.679H762.213V409.544H769.346V352.94C769.346 345.973 768.881 341.503 767.954 339.529C767.026 337.439 765.344 336.394 762.908 336.394C759.196 336.394 755.891 338.832 752.991 343.709C750.208 348.585 748.816 354.507 748.816 361.474V409.544H756.297V412.679H706.886V409.544H716.455V332.91H706.886V329.775ZM290.782 543.652C286.491 543.652 282.721 546.439 279.473 552.012C276.226 557.585 274.602 564.204 274.602 571.867V618.544H286.955V621.679H232.672V618.544H242.241V541.91H232.672V538.775H274.602V555.495C276.109 549.574 279.01 545.045 283.301 541.91C287.592 538.66 292.464 537.034 297.916 537.034C303.367 537.034 307.774 538.601 311.138 541.736C314.618 544.756 316.358 549.11 316.358 554.799C316.358 560.372 315.081 564.668 312.53 567.687C309.979 570.706 306.034 572.215 300.699 572.215C295.48 572.215 291.594 570.474 289.042 566.99C286.607 563.507 286.317 558.689 288.172 552.535H294.436C297.335 546.613 296.117 543.652 290.782 543.652ZM363.722 623.42C348.76 623.42 337.508 619.589 329.969 611.925C322.545 604.146 318.834 593.405 318.834 579.705C318.834 565.887 323.01 555.321 331.361 548.006C339.828 540.691 350.557 537.034 363.548 537.034C389.877 537.034 402.52 550.27 401.476 576.744H352.413V583.536C352.413 594.915 353.862 603.507 356.763 609.313C359.662 615.119 364.708 618.021 371.899 618.021C385.353 618.021 394.169 610.822 398.345 596.425L401.476 596.947C399.272 605.307 395.27 611.81 389.472 616.454C383.787 621.098 375.205 623.42 363.722 623.42ZM352.587 573.26H370.507V564.726C370.507 555.321 369.927 548.936 368.768 545.568C367.724 542.085 365.519 540.343 362.156 540.343C358.908 540.343 356.472 542.2 354.849 545.916C353.34 549.515 352.587 555.785 352.587 564.726V573.26ZM449.43 580.75H454.475V567.339C454.475 556.308 453.838 548.935 452.561 545.22C451.402 541.388 449.082 539.472 445.602 539.472C443.514 539.472 441.601 540.053 439.861 541.214C438.238 542.259 437.425 543.768 437.425 545.742C437.425 547.599 437.773 549.515 438.469 551.49H442.818C443.747 553.928 444.21 556.889 444.21 560.372C444.21 563.74 442.761 566.7 439.861 569.255C436.961 571.693 433.308 572.912 428.9 572.912C418.926 572.912 413.937 568.094 413.937 558.456C413.937 544.175 426.059 537.034 450.3 537.034C464.103 537.034 473.613 539.414 478.833 544.175C484.169 548.819 486.836 557.411 486.836 569.951V605.307C486.836 611.344 488.519 614.364 491.882 614.364C495.826 614.364 498.145 608.384 498.841 596.425L501.451 596.599C500.987 606.816 499.073 613.841 495.709 617.673C492.346 621.505 486.836 623.42 479.181 623.42C465.262 623.42 457.259 619.125 455.171 610.532C453.664 614.945 451.402 618.195 448.386 620.285C445.371 622.375 440.963 623.42 435.163 623.42C417.997 623.42 409.414 616.395 409.414 602.346C409.414 594.102 412.662 588.471 419.157 585.452C425.768 582.317 435.859 580.75 449.43 580.75ZM442.47 602.172C442.47 608.209 442.761 612.1 443.34 613.841C444.036 615.583 445.254 616.454 446.994 616.454C448.851 616.454 450.532 615.002 452.04 612.1C453.664 609.08 454.475 604.959 454.475 599.734V583.536H453.257C446.067 583.536 442.47 588.82 442.47 599.385V602.172ZM509.311 596.773V541.91H499.742V538.775H509.311V516.308L541.672 508.296V538.775H564.29V541.91H541.672V600.605C541.672 606.062 542.194 610.068 543.238 612.622C544.398 615.176 546.717 616.454 550.197 616.454C553.677 616.454 556.693 614.712 559.244 611.229C561.912 607.745 563.652 602.984 564.464 596.947L567.421 597.295C566.494 605.307 563.942 611.693 559.766 616.454C555.59 621.098 548.69 623.42 539.062 623.42C529.436 623.42 522.07 621.505 516.966 617.673C511.864 613.841 509.311 606.875 509.311 596.773ZM594.66 526.758C588.512 526.758 584.105 525.19 581.437 522.055C578.886 518.92 577.609 515.03 577.609 510.386C577.609 505.742 579.001 501.911 581.785 498.891C584.684 495.872 589.034 494.363 594.834 494.363C600.633 494.363 605.04 495.756 608.056 498.543C611.072 501.214 612.58 505.103 612.58 510.212C612.58 515.204 611.13 519.21 608.23 522.23C605.331 525.249 600.807 526.758 594.66 526.758ZM568.388 538.775H611.014V618.544H620.757V621.679H569.084V618.544H578.653V541.91H568.388V538.775ZM617.296 541.91V538.775H669.317V541.91H658.356L679.234 599.734L698.024 541.91H686.367V538.775H709.855V541.91H702.2L676.45 621.679H656.616L624.429 541.91H617.296ZM752.974 623.42C738.012 623.42 726.761 619.589 719.221 611.925C711.799 604.146 708.086 593.405 708.086 579.705C708.086 565.887 712.262 555.321 720.613 548.006C729.081 540.691 739.81 537.034 752.8 537.034C779.13 537.034 791.772 550.27 790.728 576.744H741.665V583.536C741.665 594.915 743.115 603.507 746.015 609.313C748.915 615.119 753.961 618.021 761.151 618.021C774.606 618.021 783.421 610.822 787.597 596.425L790.728 596.947C788.525 605.307 784.523 611.81 778.723 616.454C773.04 621.098 764.457 623.42 752.974 623.42ZM741.839 573.26H759.759V564.726C759.759 555.321 759.18 548.936 758.02 545.568C756.976 542.085 754.772 540.343 751.408 540.343C748.161 540.343 745.725 542.2 744.101 545.916C742.593 549.515 741.839 555.785 741.839 564.726V573.26Z" fill="white"/>
<path d="M143.438 501.868C124.062 502.12 105.406 514.399 96.7303 532.621C81.5357 564.539 98.6126 602.159 129.387 616.654C143.675 623.385 160.003 625.092 175.46 621.941L178.03 627.779L218.814 618.684C218.642 615.203 218.308 610.91 217.904 606.398C216.981 608.095 215.632 609.523 213.991 610.54C208.74 613.804 201.84 612.18 198.58 606.924C195.321 601.668 196.934 594.76 202.185 591.497C203.924 590.416 205.928 589.835 207.976 589.818C211.254 589.787 214.469 591.201 216.661 593.828C215.992 587.5 215.277 581.177 214.518 574.859C198.901 583.195 183.722 587.437 167.935 591.005V590.904C155.509 594.25 134.179 591.242 126.15 582.827C131.034 593.679 147.966 600.211 166.016 600.426L168.243 605.487C161.746 608.01 154.81 609.34 147.852 609.313L144.055 604.511L137.99 608.327C134.535 607.638 131.162 606.588 127.927 605.195L125.374 598.997L119 600.242C117.09 598.916 115.272 597.463 113.559 595.891L113.409 589.443L106.375 587.705C105.39 586.294 104.483 584.83 103.655 583.321L106.017 576.12L99.7009 573.59C99.1973 571.762 98.8127 569.904 98.5494 568.028L102.254 562.264L98.4826 556.426C98.4978 556.305 98.508 556.187 98.5242 556.066C98.7565 554.349 99.105 552.661 99.5506 551.004L104.941 547.462L103.18 541.934C104.053 540.33 105.025 538.791 106.092 537.323L112.951 535.879L113.776 529.297C115.313 528.079 116.936 526.973 118.633 526.006L124.698 527.818L127.318 522.44C129.881 521.765 132.543 521.382 135.269 521.32L140.835 525.397L146.191 522.89C159.725 527.284 169.86 540.522 167.693 555.389C166.917 560.711 164.436 565.634 160.901 569.405C161.71 563.994 157.996 557.864 151.532 554.704C143.93 550.989 135.419 552.791 132.525 558.721C129.632 564.654 133.45 572.471 141.052 576.186C142.258 576.777 143.522 577.242 144.823 577.573C160.298 582.644 177.231 574.243 184.23 559.916C194.093 539.727 183.329 515.78 163.905 506.403C157.568 503.343 150.933 501.912 144.365 501.867C144.057 501.865 143.746 501.863 143.438 501.867V501.868ZM191.856 590.386L191.422 600.326L175.26 597.477L191.856 590.386Z" fill="white"/>
</g>
<defs>
<clipPath id="clip0_143_90">
<rect width="900" height="900" fill="white"/>
</clipPath>
</defs>
</svg>
