<svg width="49" height="49" viewBox="0 0 49 49" fill="none" xmlns="http://www.w3.org/2000/svg">
<path d="M43.7026 12.4255L25.3276 4.25882C25.0664 4.14258 24.7836 4.08252 24.4977 4.08252C24.2117 4.08252 23.929 4.14258 23.6677 4.25882L5.29274 12.4255C5.25191 12.4439 5.22332 12.4745 5.18249 12.4969C5.12532 12.5255 5.06407 12.5439 5.01099 12.5786C4.96607 12.6092 4.93136 12.648 4.88849 12.6807C4.7399 12.7923 4.6091 12.9259 4.50057 13.0768C4.45838 13.1312 4.41823 13.1863 4.38011 13.2421C4.31828 13.3495 4.26634 13.4623 4.22495 13.579C4.20657 13.6341 4.17799 13.6852 4.16166 13.7403C4.11006 13.9196 4.08327 14.105 4.08203 14.2916V34.7082C4.08203 35.5167 4.5557 36.2456 5.29478 36.5743L23.6698 44.741C23.9352 44.8594 24.2169 44.9166 24.4987 44.9166C24.7829 44.9091 25.0625 44.8423 25.3195 44.7206L25.3276 44.741L43.7026 36.5743C44.0636 36.4139 44.3703 36.1523 44.5856 35.821C44.8009 35.4898 44.9154 35.1033 44.9154 34.7082V14.2916C44.9154 13.8965 44.8009 13.51 44.5856 13.1788C44.3703 12.8475 44.0636 12.5859 43.7026 12.4255ZM24.4987 8.36052L37.8471 14.2916L24.4987 20.2226L21.8282 19.0364L11.1523 14.2916L24.4987 8.36052ZM26.5404 39.7328V23.7853L40.832 17.4337V33.3832L26.5404 39.7328Z" fill="#343434"/>
</svg>
