<svg width="146" height="22" viewBox="0 0 146 22" fill="none" xmlns="http://www.w3.org/2000/svg">
<path d="M7.776 17.658L6.462 13.77H2.898L1.512 17.658H2.862V18H0.108V17.658H0.954L5.544 5.292H7.02L11.556 17.658H12.384V18H6.498V17.658H7.776ZM4.752 8.658L3.06 13.374H6.318L4.752 8.658ZM22.4873 18H18.3833L18.1853 16.686C17.9933 17.166 17.7053 17.538 17.3213 17.802C16.9493 18.054 16.3913 18.18 15.6473 18.18C13.7873 18.18 12.8573 17.178 12.8573 15.174V9.756H11.8493V9.432H16.2053V15.606C16.2053 16.326 16.2533 16.8 16.3493 17.028C16.4573 17.256 16.6613 17.37 16.9613 17.37C17.2733 17.37 17.5493 17.184 17.7893 16.812C18.0293 16.44 18.1493 15.924 18.1493 15.264V9.756H17.3213V9.432H21.4973V17.676H22.4873V18ZM28.8678 9.936C28.4238 9.936 28.0338 10.224 27.6978 10.8C27.3618 11.376 27.1938 12.06 27.1938 12.852V17.676H28.4718V18H22.8558V17.676H23.8458V9.756H22.8558V9.432H27.1938V11.16C27.3498 10.548 27.6498 10.08 28.0938 9.756C28.5378 9.42 29.0418 9.252 29.6058 9.252C30.1698 9.252 30.6258 9.414 30.9738 9.738C31.3338 10.05 31.5138 10.5 31.5138 11.088C31.5138 11.664 31.3818 12.108 31.1178 12.42C30.8538 12.732 30.4458 12.888 29.8938 12.888C29.3538 12.888 28.9518 12.708 28.6878 12.348C28.4358 11.988 28.4058 11.49 28.5978 10.854H29.2458C29.5458 10.242 29.4198 9.936 28.8678 9.936ZM36.414 18.18C34.866 18.18 33.702 17.784 32.922 16.992C32.154 16.188 31.77 15.078 31.77 13.662C31.77 12.234 32.202 11.142 33.066 10.386C33.942 9.63 35.052 9.252 36.396 9.252C39.12 9.252 40.428 10.62 40.32 13.356H35.244V14.058C35.244 15.234 35.394 16.122 35.694 16.722C35.994 17.322 36.516 17.622 37.26 17.622C38.652 17.622 39.564 16.878 39.996 15.39L40.32 15.444C40.092 16.308 39.678 16.98 39.078 17.46C38.49 17.94 37.602 18.18 36.414 18.18ZM35.262 12.996H37.116V12.114C37.116 11.142 37.056 10.482 36.936 10.134C36.828 9.774 36.6 9.594 36.252 9.594C35.916 9.594 35.664 9.786 35.496 10.17C35.34 10.542 35.262 11.19 35.262 12.114V12.996ZM40.8893 4.5H45.2993V17.676H46.3073V18H40.9613V17.676H41.9513V4.824H40.8893V4.5ZM49.3026 8.19C48.6666 8.19 48.2106 8.028 47.9346 7.704C47.6706 7.38 47.5386 6.978 47.5386 6.498C47.5386 6.018 47.6826 5.622 47.9706 5.31C48.2706 4.998 48.7206 4.842 49.3206 4.842C49.9206 4.842 50.3766 4.986 50.6886 5.274C51.0006 5.55 51.1566 5.952 51.1566 6.48C51.1566 6.996 51.0066 7.41 50.7066 7.722C50.4066 8.034 49.9386 8.19 49.3026 8.19ZM46.5846 9.432H50.9946V17.676H52.0026V18H46.6566V17.676H47.6466V9.756H46.5846V9.432ZM58.1835 14.454V12.924C58.1835 11.76 58.1175 10.914 57.9855 10.386C57.8655 9.846 57.5775 9.576 57.1215 9.576C56.8575 9.576 56.6415 9.654 56.4735 9.81C56.3175 9.954 56.2035 10.2 56.1315 10.548C56.0235 11.088 55.9695 11.91 55.9695 13.014V14.418C55.9695 15.726 56.0055 16.512 56.0775 16.776C56.1615 17.04 56.2455 17.256 56.3295 17.424C56.4615 17.712 56.7195 17.856 57.1035 17.856C57.5715 17.856 57.8775 17.586 58.0215 17.046C58.1295 16.662 58.1835 15.798 58.1835 14.454ZM57.0675 18.18C55.5675 18.18 54.4335 17.796 53.6655 17.028C52.8975 16.26 52.5135 15.162 52.5135 13.734C52.5135 12.294 52.9215 11.19 53.7375 10.422C54.5655 9.642 55.7235 9.252 57.2115 9.252C58.6995 9.252 59.8095 9.612 60.5415 10.332C61.2735 11.04 61.6395 12.126 61.6395 13.59C61.6395 16.65 60.1155 18.18 57.0675 18.18ZM62.1789 9.432H66.5169V11.088C66.7089 10.536 67.0029 10.092 67.3989 9.756C67.7949 9.42 68.3949 9.252 69.1989 9.252C71.0589 9.252 71.9889 10.254 71.9889 12.258V17.676H72.9969V18H67.9029V17.676H68.6409V11.826C68.6409 11.106 68.5929 10.644 68.4969 10.44C68.4009 10.224 68.2269 10.116 67.9749 10.116C67.5909 10.116 67.2489 10.368 66.9489 10.872C66.6609 11.376 66.5169 11.988 66.5169 12.708V17.676H67.2909V18H62.1789V17.676H63.1689V9.756H62.1789V9.432ZM100.609 18.18C99.0613 18.18 97.8973 17.784 97.1173 16.992C96.3493 16.188 95.9653 15.078 95.9653 13.662C95.9653 12.234 96.3973 11.142 97.2613 10.386C98.1373 9.63 99.2473 9.252 100.591 9.252C103.315 9.252 104.623 10.62 104.515 13.356H99.4393V14.058C99.4393 15.234 99.5893 16.122 99.8893 16.722C100.189 17.322 100.711 17.622 101.455 17.622C102.847 17.622 103.759 16.878 104.191 15.39L104.515 15.444C104.287 16.308 103.873 16.98 103.273 17.46C102.685 17.94 101.797 18.18 100.609 18.18ZM99.4573 12.996H101.311V12.114C101.311 11.142 101.251 10.482 101.131 10.134C101.023 9.774 100.795 9.594 100.447 9.594C100.111 9.594 99.8593 9.786 99.6913 10.17C99.5353 10.542 99.4573 11.19 99.4573 12.114V12.996ZM109.477 13.77H109.999V12.384C109.999 11.244 109.933 10.482 109.801 10.098C109.681 9.702 109.441 9.504 109.081 9.504C108.865 9.504 108.667 9.564 108.487 9.684C108.319 9.792 108.235 9.948 108.235 10.152C108.235 10.344 108.271 10.542 108.343 10.746H108.793C108.889 10.998 108.937 11.304 108.937 11.664C108.937 12.012 108.787 12.318 108.487 12.582C108.187 12.834 107.809 12.96 107.353 12.96C106.321 12.96 105.805 12.462 105.805 11.466C105.805 9.99 107.059 9.252 109.567 9.252C110.995 9.252 111.979 9.498 112.519 9.99C113.071 10.47 113.347 11.358 113.347 12.654V16.308C113.347 16.932 113.521 17.244 113.869 17.244C114.277 17.244 114.517 16.626 114.589 15.39L114.859 15.408C114.811 16.464 114.613 17.19 114.265 17.586C113.917 17.982 113.347 18.18 112.555 18.18C111.115 18.18 110.287 17.736 110.071 16.848C109.915 17.304 109.681 17.64 109.369 17.856C109.057 18.072 108.601 18.18 108.001 18.18C106.225 18.18 105.337 17.454 105.337 16.002C105.337 15.15 105.673 14.568 106.345 14.256C107.029 13.932 108.073 13.77 109.477 13.77ZM108.757 15.984C108.757 16.608 108.787 17.01 108.847 17.19C108.919 17.37 109.045 17.46 109.225 17.46C109.417 17.46 109.591 17.31 109.747 17.01C109.915 16.698 109.999 16.272 109.999 15.732V14.058H109.873C109.129 14.058 108.757 14.604 108.757 15.696V15.984ZM115.672 15.426V9.756H114.682V9.432H115.672V7.11L119.02 6.282V9.432H121.36V9.756H119.02V15.822C119.02 16.386 119.074 16.8 119.182 17.064C119.302 17.328 119.542 17.46 119.902 17.46C120.262 17.46 120.574 17.28 120.838 16.92C121.114 16.56 121.294 16.068 121.378 15.444L121.684 15.48C121.588 16.308 121.324 16.968 120.892 17.46C120.46 17.94 119.746 18.18 118.75 18.18C117.754 18.18 116.992 17.982 116.464 17.586C115.936 17.19 115.672 16.47 115.672 15.426ZM124.502 8.19C123.866 8.19 123.41 8.028 123.134 7.704C122.87 7.38 122.738 6.978 122.738 6.498C122.738 6.018 122.882 5.622 123.17 5.31C123.47 4.998 123.92 4.842 124.52 4.842C125.12 4.842 125.576 4.986 125.888 5.274C126.2 5.55 126.356 5.952 126.356 6.48C126.356 6.996 126.206 7.41 125.906 7.722C125.606 8.034 125.138 8.19 124.502 8.19ZM121.784 9.432H126.194V17.676H127.202V18H121.856V17.676H122.846V9.756H121.784V9.432ZM126.844 9.756V9.432H132.226V9.756H131.092L133.252 15.732L135.196 9.756H133.99V9.432H136.42V9.756H135.628L132.964 18H130.912L127.582 9.756H126.844ZM140.881 18.18C139.333 18.18 138.169 17.784 137.389 16.992C136.621 16.188 136.237 15.078 136.237 13.662C136.237 12.234 136.669 11.142 137.533 10.386C138.409 9.63 139.519 9.252 140.863 9.252C143.587 9.252 144.895 10.62 144.787 13.356H139.711V14.058C139.711 15.234 139.861 16.122 140.161 16.722C140.461 17.322 140.983 17.622 141.727 17.622C143.119 17.622 144.031 16.878 144.463 15.39L144.787 15.444C144.559 16.308 144.145 16.98 143.545 17.46C142.957 17.94 142.069 18.18 140.881 18.18ZM139.729 12.996H141.583V12.114C141.583 11.142 141.523 10.482 141.403 10.134C141.295 9.774 141.067 9.594 140.719 9.594C140.383 9.594 140.131 9.786 139.963 10.17C139.807 10.542 139.729 11.19 139.729 12.114V12.996Z" fill="#2E5BEF"/>
<path d="M84.9672 3.00043C82.3883 3.03453 79.905 4.69231 78.7502 7.15245C76.7278 11.4618 79.0008 16.541 83.097 18.4979C84.9987 19.4068 87.1721 19.6372 89.2295 19.2118L89.5716 20L95 18.772C94.9772 18.3021 94.9327 17.7224 94.8789 17.1132C94.756 17.3423 94.5765 17.5352 94.358 17.6726C93.6592 18.1131 92.7408 17.8939 92.3068 17.1843C91.873 16.4747 92.0877 15.542 92.7866 15.1014C93.0182 14.9554 93.2849 14.877 93.5574 14.8748C93.9938 14.8706 94.4217 15.0614 94.7135 15.4162C94.6243 14.5617 94.5292 13.7082 94.4282 12.8551C92.3495 13.9806 90.3292 14.5533 88.2278 15.0351V15.0215C86.574 15.4731 83.7348 15.067 82.6661 13.9309C83.3162 15.396 85.5699 16.278 87.9724 16.307L88.2689 16.9903C87.4041 17.3309 86.4809 17.5105 85.5547 17.5068L85.0494 16.8584L84.242 17.3738C83.7822 17.2807 83.3333 17.1389 82.9026 16.9508L82.5629 16.114L81.7144 16.2822C81.4602 16.1031 81.2182 15.9069 80.9903 15.6946L80.9702 14.8241L80.034 14.5895C79.9029 14.399 79.7821 14.2013 79.672 13.9976L79.9864 13.0254L79.1456 12.6838C79.0786 12.437 79.0274 12.1861 78.9924 11.9328L79.4855 11.1546L78.9835 10.3664C78.9855 10.3501 78.9869 10.3341 78.989 10.3179C79.0199 10.0861 79.0663 9.85814 79.1256 9.63442L79.8431 9.15623L79.6087 8.40981C79.7249 8.1933 79.8543 7.98553 79.9963 7.78734L80.9092 7.59234L81.0191 6.70365C81.2236 6.53922 81.4398 6.3899 81.6656 6.25939L82.4729 6.50395L82.8216 5.77785C83.1628 5.68681 83.5171 5.63508 83.8799 5.62668L84.6207 6.17709L85.3337 5.83865C87.135 6.43189 88.484 8.21917 88.1956 10.2265C88.0923 10.945 87.7621 11.6096 87.2916 12.1187C87.3993 11.3883 86.9049 10.5606 86.0445 10.1339C85.0327 9.6324 83.8998 9.87561 83.5146 10.6763C83.1295 11.4773 83.6378 12.5328 84.6496 13.0343C84.8102 13.1141 84.9784 13.1769 85.1516 13.2216C87.2114 13.9062 89.4651 12.7719 90.3968 10.8377C91.7095 8.11184 90.2769 4.87875 87.6914 3.61265C86.848 3.19964 85.9648 3.00631 85.0906 3.00027C85.0496 3.0001 85.0082 2.99993 84.9672 3.00043ZM91.4118 14.9514L91.354 16.2934L89.2029 15.9088L91.4118 14.9514Z" fill="#2E5BEF"/>
</svg>
